<svg width="344" height="453" viewBox="0 0 344 453" fill="none" xmlns="http://www.w3.org/2000/svg">
<path d="M142.356 85.0291C142.818 82.6237 143.477 80.7455 143.477 78.8674C143.477 75.7371 145.355 74.5509 147.86 74.6497C155.307 74.8804 162.788 74.9792 170.169 75.9348C175.178 76.5938 175.046 77.2858 174.091 82.1624C171.421 95.9356 177.452 115.903 197.191 120.549C210.438 123.647 222.796 120.484 234.692 115.08C238.745 113.234 240.821 109.28 241.843 104.964C242.304 102.954 242.699 100.944 243.293 98.1433C246.061 100.746 248.73 102.888 250.971 105.425C256.705 111.818 262.867 117.617 270.413 121.867C271.665 122.559 272.819 123.877 273.445 125.195C278.981 136.959 282.705 148.985 282.606 162.363C282.54 173.764 284.385 185.198 285.671 196.599C287.219 210.339 286.363 223.914 283.43 237.391C279.64 254.888 275.686 272.351 271.929 289.848C271.006 294.131 270.842 298.58 269.82 302.83C269.392 304.61 267.942 306.29 266.656 307.707C265.371 309.124 263.79 310.376 262.142 311.265C260.428 312.221 258.352 313.374 256.573 313.177C253.113 312.814 250.905 314.231 248.928 316.669C247.873 317.954 246.555 319.075 245.533 320.393C243.424 323.062 241.151 323.984 237.822 322.238C234.099 320.261 230.704 321.513 228.134 324.544C225.531 327.642 222.829 328.927 219.171 326.39C216.864 324.808 215.183 326.06 213.964 327.905C211.558 331.464 208.659 332.156 204.342 331.365C200.915 330.706 197.092 332.156 193.467 332.419C187.568 332.848 181.67 332.98 175.771 333.408C161.865 334.397 147.959 335.484 134.085 336.538C133.195 336.604 132.141 336.67 131.515 337.197C127.494 340.492 123.507 339.537 119.256 337.659C116.949 336.637 114.313 336.308 111.809 335.747C107.953 334.924 103.867 334.957 101.165 331.167C100.506 330.278 97.8694 329.948 96.6172 330.475C93.6514 331.728 92.0696 330.673 90.5208 328.367C81.3268 314.659 72.034 301.018 62.9389 287.212C58.6879 280.754 54.7335 274.065 50.9109 267.343C42.9691 253.306 40.8931 238.281 45.4406 222.86C48.4723 212.547 49.1644 202.563 46.7588 192.051C43.068 175.807 45.4077 159.793 49.7575 143.878C51.57 137.222 52.229 130.204 53.4813 123.383C53.9096 121.11 54.404 118.836 55.1948 116.694C56.8425 112.246 58.8856 107.897 60.4344 103.415C61.2912 100.944 62.6752 100.318 65.1797 99.8896C70.7159 98.967 74.4396 100.252 75.3952 106.15C74.7691 100.45 73.9123 94.7494 73.5498 89.016C72.7919 77.154 77.3724 67.3018 85.8085 59.229C90.4879 54.7807 95.4309 50.5961 100.539 46.642C106.734 41.8642 113.885 41.9631 120.245 45.4888C126.012 48.6849 131.713 52.8037 135.963 57.7792C138.962 61.3049 139.819 66.8405 140.939 71.6183C141.895 75.7041 141.862 80.0536 142.323 84.9632L142.356 85.0291ZM110.326 125.69C116.191 123.779 122.09 122.065 127.857 119.89C129.505 119.264 131.02 117.518 131.943 115.903C134.547 111.29 136.886 106.579 139.094 101.768C139.885 100.054 140.083 98.0115 140.544 96.1333C138.83 98.8352 137.578 101.669 136.557 104.536C132.965 114.52 126.901 121.604 115.73 123.185C113.885 123.449 112.204 124.866 110.425 125.756C108.25 125.657 106.009 125.756 103.867 125.459C93.6184 123.943 82.8427 123.284 78.394 111.29C78.361 111.192 78.0645 111.192 77.8667 111.126C81.2609 120.615 83.6336 122.757 93.0253 124.866C94.9036 125.294 96.782 126.085 98.6603 126.118C102.582 126.184 106.47 125.854 110.392 125.69H110.326ZM136.458 228.099C132.437 234.689 132.932 241.543 135.304 248.495C140.544 263.949 145.784 279.435 151.089 294.856C153.099 300.688 154.912 306.619 157.482 312.188C159.789 317.196 163.941 317.394 167.698 313.308C169.279 311.562 170.795 309.75 172.509 307.74C173.53 311.43 174.091 314.626 175.343 317.559C176.002 319.075 177.814 320.953 179.198 321.052C180.879 321.151 183.021 319.898 184.339 318.58C185.492 317.394 186.02 315.417 186.382 313.671C191.358 291.001 195.972 268.298 197.553 245.068C198.081 237.127 196.235 230.241 190.996 224.31C181.769 213.832 169.872 210.57 156.395 211.591C146.805 212.316 138.863 218.84 136.359 228.231L136.491 228.099H136.458ZM103.702 120.451C120.047 120.615 133.261 109.412 137.611 93.036C142.192 75.7371 132.108 57.5156 118.894 51.6175C113.753 49.311 108.777 48.9815 103.735 51.2221C87.8846 58.1746 73.7805 73.134 77.4054 95.8697C79.8769 111.488 88.972 120.286 103.702 120.451ZM250.542 193.633C250.081 189.152 249.751 184.671 249.092 180.222C247.379 168.756 242.93 159.101 231.133 154.752C225.959 152.841 221.115 153.664 217.325 157.915C206.78 169.777 201.87 183.484 204.836 199.333C206.978 210.701 213.338 219.17 224.213 223.717C231.627 226.814 237.723 224.771 241.876 217.983C246.423 210.537 249.685 202.563 250.509 193.633H250.542ZM69.7932 193.139C70.0568 206.418 75.2634 217.522 88.0164 224.343C95.9581 228.626 103.208 226.748 107.953 219.071C115.829 206.352 117.839 192.809 114.346 178.245C112.072 168.822 107.953 161.078 98.7921 156.927C92.3662 153.994 86.6982 155.345 82.0848 160.65C74.1101 169.777 70.1557 180.42 69.8261 193.139H69.7932Z" fill="#FFFDEB"/>
<path d="M133.426 424.483C133.953 424.647 134.777 425.109 135.008 424.878C142.027 419.013 150.133 417.069 159.097 418.024C159.262 418.024 159.459 417.761 160.382 417.036C158.504 416.838 157.251 416.607 155.999 416.542C141.434 415.981 127.297 418.683 113.094 421.484C101.527 423.791 89.8288 425.438 78.0645 427.415C77.3395 421.912 77.0429 416.509 75.8566 411.335C73.484 400.956 69.8261 390.807 68.2114 380.362C66.6956 370.675 67.091 360.658 66.6626 350.806C66.5967 349.125 66.5967 347.445 66.5638 345.764C66.5638 342.601 66.6297 342.535 70.5182 342.338C69.5955 343.359 68.8705 344.15 68.1455 344.908C68.2773 345.072 68.3762 345.237 68.508 345.402C70.4852 344.282 72.4954 343.161 74.4726 342.008C74.6373 342.239 74.7691 342.436 74.9339 342.667C73.0226 344.677 71.1113 346.72 69.3318 348.598C73.3851 346.654 77.5043 344.677 81.6564 342.7C81.1291 343.491 80.7996 344.644 80.0746 345.039C77.5702 346.423 74.9339 347.577 72.3635 348.829C72.4954 349.125 72.5942 349.422 72.726 349.751C78.0645 348.4 82.8098 343.293 89.6311 346.984C85.5119 348.038 82.0189 348.928 78.5258 349.817C84.9847 350.279 91.0811 346.951 98.0672 349.455C92.9594 350.575 88.4118 351.597 83.8313 352.585C83.8972 352.948 83.9961 353.31 84.062 353.672C87.7857 352.98 91.5094 352.091 95.2661 351.63C98.9569 351.168 102.714 351.102 106.437 350.872C106.437 351.201 106.437 351.498 106.47 351.827C102.681 352.223 98.891 352.651 95.1014 353.046C104.493 354.496 114.313 351.135 123.375 356.44C122.09 356.803 121.036 357.099 119.981 357.396C137.084 358.714 154.187 361.712 170.433 353.738C168.291 353.936 166.215 354.364 164.106 354.76C159.064 355.715 154.088 356.935 149.013 357.528C136.524 359.01 124.825 355.287 113.061 351.761C102.615 348.631 92.0367 345.797 81.5246 342.865C77.0429 342.107 72.5613 340.855 68.0467 340.69C64.29 340.558 61.8844 339.504 60.6981 335.912C58.7209 329.948 56.6778 323.984 54.7335 317.987C54.4369 317.032 54.2722 315.911 54.4369 314.923C54.6676 313.671 55.2937 312.485 55.7551 311.265C57.0073 311.793 58.3913 312.122 59.4788 312.88C62.7082 315.121 65.9376 317.394 68.9364 319.898C74.143 324.215 80.4042 326.126 86.7312 327.938C87.588 328.169 88.6096 328.531 89.0709 329.19C91.2458 332.321 93.6514 333.902 97.441 331.563C98.1001 331.167 100.077 331.728 100.539 332.452C103.603 337.329 108.777 336.505 113.292 337.593C116.521 338.384 119.619 339.603 122.848 340.393C124.496 340.789 126.802 341.448 127.857 340.69C133.822 336.341 140.742 337.527 147.299 336.934C154.615 336.275 162.227 337.329 169.312 335.813C179.824 333.573 190.633 335.682 200.98 332.617C201.87 332.354 203.057 332.452 203.946 332.815C209.087 334.924 212.646 332.881 215.414 328.63C215.777 328.103 216.205 327.642 216.765 326.95C217.688 327.345 218.611 327.675 219.467 328.136C222.763 329.751 225.728 329.454 228.167 326.62C231.1 323.226 234.164 321.875 238.679 324.116C241.315 325.434 244.248 324.413 246.291 321.908C247.84 320.03 249.323 317.987 251.168 316.439C252.421 315.384 254.596 314.165 255.848 314.561C259.077 315.582 261.153 314.099 263.163 312.287C266.558 309.19 270.578 307.905 275.027 307.246C277.202 306.916 279.311 305.664 281.354 304.675C283.298 303.753 285.11 302.6 287.121 301.512C289.493 304.807 290.086 307.839 288.834 311.265C286.165 318.712 281.485 324.281 274.137 327.345C268.667 329.619 262.768 331.003 257.627 333.803C248.038 339.01 237.46 341.283 227.442 345.138C217.259 349.059 206.55 349.389 195.807 349.092C187.865 348.862 180.319 350.74 172.97 353.936C177.452 353.079 181.933 352.223 186.448 351.366C186.448 351.498 186.481 351.63 186.514 351.728C185.064 352.321 183.581 352.948 182.131 353.541C182.131 353.837 182.164 354.167 182.197 354.463C185.525 355.023 188.821 355.682 192.149 356.177C198.443 357.099 204.737 357.956 210.504 358.747C214.755 355.122 218.742 359.34 223.125 358.055C221.906 357.396 220.752 356.407 219.434 356.111C212.448 354.397 205.429 352.849 198.41 351.267C198.476 350.938 198.542 350.575 198.608 350.246L228.332 356.21C228.398 355.88 228.497 355.551 228.562 355.221C222.829 353.969 217.062 352.684 211.328 351.432C211.328 351.135 211.328 350.839 211.361 350.542C214.953 349.916 218.545 349.323 222.104 348.73C222.862 352.519 230.309 355.056 234.527 352.519C232.715 352.058 231.265 351.761 229.848 351.333C227.244 350.542 224.641 349.653 222.071 348.796C224.114 348.862 226.289 348.532 228.2 349.092C232.187 350.213 236.01 351.794 240.195 352.552C238.778 351.728 237.361 350.905 235.911 350.081C238.02 350.509 240.129 350.938 242.238 351.366C242.37 350.905 242.469 350.41 242.601 349.949C240.195 349.092 237.756 348.203 235.351 347.346C235.186 347.61 235.021 347.873 234.857 348.137C235.252 348.829 235.647 349.554 236.043 350.246C233.044 349.257 230.012 348.269 227.014 347.28C227.014 347.016 227.014 346.753 227.014 346.489C231.825 345.138 236.702 343.919 241.447 342.403C244.611 341.382 247.84 340.295 250.608 338.548C255.815 335.319 260.923 334.133 266.656 337.066C267.975 337.725 269.523 337.889 271.303 337.428C268.172 336.242 265.042 335.023 261.615 333.705C265.338 331.036 268.502 333.111 271.665 333.968C274.928 334.858 278.157 335.912 281.387 336.901C281.518 336.505 281.683 336.11 281.815 335.682C278.091 334.232 274.401 332.782 270.512 331.299C270.611 331.134 270.743 330.706 270.973 330.64C275.62 329.125 283.924 333.935 284.451 338.713C284.946 343.161 284.946 347.675 285.209 352.849C283.298 351.597 281.683 350.542 280.068 349.455C279.937 349.554 279.805 349.653 279.706 349.751C281.749 352.19 283.792 354.595 285.802 357.033C285.374 357.462 284.946 357.89 284.517 358.318C280.563 355.089 276.641 351.893 272.193 348.269C274.236 347.807 275.587 347.544 277.3 347.148C273.181 344.38 254.233 344.545 248.796 347.807C252.124 347.807 255.584 348.367 258.748 347.708C267.843 345.797 273.082 351.432 278.421 357.066C273.939 354.529 269.458 351.992 264.976 349.455C264.745 349.85 264.515 350.246 264.251 350.674C270.15 354.661 276.081 358.681 281.98 362.668C282.178 362.437 282.375 362.207 282.573 361.976C281.123 360.295 279.706 358.615 278.256 356.935C280.233 358.055 282.21 359.142 284.451 360.394C284.188 362.108 283.891 364.085 283.496 366.622C275.719 358.747 266.953 353.178 257.298 349.059C257.133 349.356 256.935 349.62 256.77 349.916C260.989 352.519 265.207 355.122 269.425 357.758C271.83 359.274 274.302 360.691 276.542 362.404C281.288 366.062 285.44 369.983 286.363 376.54C287.055 381.449 288.801 386.194 290.218 391.631C281.42 389.984 273.148 388.336 264.844 386.886C261.417 386.293 257.957 385.733 254.497 385.733C238.218 385.865 221.906 385.733 205.66 386.59C192.94 387.282 180.319 389.391 167.665 390.807C157.548 391.961 147.464 393.048 137.348 394.135C131.844 394.728 126.341 395.256 120.805 395.849C120.245 395.915 119.718 396.31 119.157 396.574C119.223 396.903 119.256 397.266 119.322 397.595C130.625 396.376 141.961 395.124 152.967 393.938C153.791 394.761 154.384 395.882 155.307 396.178C167.829 400.528 180.418 404.778 192.973 409.029C193.302 409.128 193.698 408.963 194.884 408.798C182.395 401.483 168.785 399.243 156.197 393.608C162.82 392.85 169.411 392.027 176.035 391.302C187.305 390.05 198.542 388.732 209.812 387.644C217.655 386.886 225.102 386.787 232.418 391.598C244.775 399.737 257.825 406.788 270.677 414.235C258.286 403.493 243.424 396.409 228.529 387.578C233.736 386.458 237.658 387.479 241.348 389.588C249.422 394.168 257.463 398.814 265.437 403.559C270.743 406.722 275.883 410.116 281.09 413.411C281.288 413.148 281.485 412.884 281.65 412.62C277.531 409.754 273.511 406.722 269.293 404.02C264.943 401.253 260.428 398.781 255.98 396.178C251.432 393.509 246.917 390.807 241.974 387.908C248.862 387.908 255.288 387.809 261.681 388.04C262.504 388.04 263.098 390.017 264.086 390.709C270.677 395.42 277.3 400.033 284.188 404.35C279.64 397.43 272.357 393.905 265.767 389.489C265.964 389.193 266.162 388.896 266.327 388.633C273.61 393.279 280.925 397.925 288.208 402.604C288.373 402.34 288.57 402.076 288.735 401.813C283.726 398.221 278.684 394.663 273.346 390.84C281.057 390.313 291.141 399.045 291.404 406.063C291.47 407.711 291.141 409.391 290.943 411.039C290.317 415.981 290.416 420.825 293.316 425.504C287.714 424.021 282.408 422.604 277.103 421.22C276.938 421.715 276.773 422.209 276.641 422.703C281.65 425.142 286.593 427.811 291.767 429.886C293.019 430.381 294.996 429.03 296.644 428.535C296.875 428.14 297.105 427.745 297.336 427.349C300.137 432.127 302.905 436.905 306.299 442.704C302.839 443.066 299.972 444.088 297.501 443.462C289.889 441.551 282.672 441.913 275.125 444.319C266.525 447.053 257.397 446.329 248.631 445.175C232.418 443.099 216.337 442.539 200.025 444.45C180.648 446.691 161.173 447.91 141.664 446.922C133.064 446.493 124.759 448.042 116.356 449.36C111.578 450.118 106.338 449.722 101.56 448.635C93.3219 446.79 85.3472 443.857 77.1418 441.748C74.9669 441.188 72.4295 442.012 69.8591 442.21C67.8489 438.124 68.8375 436.048 73.5169 436.312C79.9428 436.641 83.9302 431.896 88.9061 429.03L78.1633 431.995C78.0315 431.83 77.9327 431.666 77.8009 431.468C78.9542 430.677 80.0087 429.425 81.261 429.194C91.9378 427.053 102.648 425.109 113.358 423.099C113.522 423.494 113.687 423.922 113.852 424.318C107.854 428.404 101.857 432.489 95.8593 436.575C96.057 436.905 96.2218 437.267 96.4195 437.597C110.161 429.59 121.991 416.838 140.511 419.639C138.27 421.089 136.194 422.44 134.118 423.758L134.382 421.748C133.723 421.879 132.866 421.814 132.405 422.209C129.9 424.219 127.494 426.361 125.089 428.469C123.145 430.183 121.266 431.962 119.355 433.709C119.652 434.071 119.948 434.434 120.245 434.796C125.32 432.489 128.615 427.613 133.228 424.647L133.426 424.483ZM269.095 363.788C273.379 366.655 277.63 369.554 281.914 372.421C282.112 372.125 282.309 371.861 282.507 371.564C273.807 362.701 264.086 355.254 252.882 349.784C252.684 350.048 252.487 350.312 252.289 350.575C256.276 353.771 260.264 356.967 264.284 360.164C261.219 358.285 258.089 356.506 255.057 354.562C247.939 349.916 247.939 349.883 245.138 350.575C253.871 356.473 262.043 362.009 270.248 367.577C270.512 367.215 270.809 366.853 271.072 366.49C270.413 365.6 269.754 364.678 269.128 363.788H269.095ZM216.04 388.699C225.168 393.279 233.571 397.134 241.579 401.648C249.686 406.228 257.397 411.5 265.239 416.476C262.57 409.787 228.529 390.247 216.007 388.699H216.04ZM244.578 416.41C228.365 405.174 210.339 397.397 191.457 391.302C209.153 399.671 226.882 408.04 244.578 416.41ZM289.889 412.456C285.967 404.844 255.782 387.249 248.236 388.303C262.834 395.849 277.663 401.912 289.889 412.456ZM110.128 425.174C101.198 425.339 84.0949 432.918 82.0848 438.058C86.0062 435.982 89.8947 433.873 93.8162 431.797C94.0798 432.127 94.3764 432.456 94.64 432.753L90.3561 435.125C90.7186 435.554 91.0811 435.949 91.4435 436.378C97.3422 432.852 103.208 429.326 110.128 425.174ZM167.5 392.817C167.302 393.246 167.104 393.707 166.94 394.135C180.681 399.21 194.39 404.284 208.131 409.358C195.84 400.824 181.604 396.969 167.5 392.817ZM207.505 390.61C223.422 398.551 239.338 406.525 255.288 414.499C241.315 402.834 224.377 397.035 207.505 390.61ZM227.837 413.148C214.59 402.999 199.036 398.32 183.416 393.773C198.179 400.198 212.943 406.656 227.837 413.148ZM288.01 436.345C288.142 435.916 288.241 435.488 288.373 435.06C278.783 430.644 268.897 427.448 258.352 426.46C258.253 426.855 258.122 427.217 258.023 427.613C268.008 430.545 278.025 433.445 288.01 436.378V436.345ZM272.094 440.035C262.208 437.597 252.388 435.125 242.205 435.389C252.091 437.663 261.911 440.299 272.094 440.035ZM249.488 432.127C249.883 432.687 250.015 433.017 250.18 433.05C259.604 435.027 268.996 437.004 278.421 438.849C278.948 438.948 279.64 438.124 280.266 437.729C269.886 435.85 260.231 431.6 249.488 432.094V432.127ZM175.343 404.251C166.61 401.351 157.91 398.452 148.585 395.355C150.035 398.781 171.85 406.195 175.343 404.251ZM234.56 437.696C237.394 441.518 259.572 445.703 261.582 443.231C252.717 441.419 244.051 439.64 234.56 437.696ZM124.067 423.955C118.729 426.987 111.545 426.822 107.525 434.17C113.621 430.282 121.069 431.04 124.067 423.955ZM270.545 423.362C270.413 423.758 270.248 424.153 270.117 424.515C277.729 427.382 285.341 430.282 292.953 433.148C293.085 432.786 293.217 432.424 293.382 432.028C286.33 427.679 278.652 424.944 270.578 423.329L270.545 423.362ZM261.153 365.007C259.044 360.724 245.435 352.816 242.798 354.068C248.928 358.022 254.793 361.943 261.153 365.007ZM138.435 428.667C138.83 429.293 139.193 429.886 139.588 430.512C144.169 427.415 148.716 424.318 153.297 421.22C152.902 420.627 152.506 420.034 152.111 419.441C147.563 422.506 143.016 425.603 138.468 428.667H138.435ZM159.954 421.352C159.624 420.891 159.327 420.463 158.998 420.001C156.362 422.242 153.692 424.45 151.056 426.69C151.353 427.086 151.649 427.448 151.946 427.843C155.241 426.525 157.614 423.988 159.954 421.352ZM116.323 356.638C116.323 355.979 116.356 355.32 116.389 354.661C113.061 354.925 109.733 355.155 106.404 355.419C106.404 355.814 106.47 356.243 106.503 356.638H116.323Z" fill="#FFFDEB"/>
<path d="M7.34655 272.68C6.48977 267.903 5.23754 263.191 4.87505 258.38C3.12852 236.106 1.61267 213.798 0.0309089 191.491C-0.265671 187.109 1.57972 183.715 5.23754 181.342C5.56707 181.145 5.8966 180.947 6.22614 180.749C20.462 172.874 17.2326 176.235 18.3859 160.814C19.6382 144.273 22.9335 128.095 25.405 111.784C28.3378 92.6403 34.1376 74.4188 44.6168 58.1413C52.921 45.2248 62.2798 32.8685 73.8135 22.588C89.9606 8.18876 109.568 2.42246 130.691 0.610201C152.638 -1.30091 174.321 1.66461 196.004 4.16883C207.275 5.45389 218.643 6.87075 229.617 9.67152C258.319 17.0194 278.421 35.6034 293.579 60.349C304.553 78.241 310.946 97.7805 315.065 118.177C316.877 127.304 318.756 136.398 320.832 145.46C321.095 146.613 322.512 148.063 323.666 148.326C333.354 150.6 338.923 156.761 340.571 166.35C341.691 172.94 342.746 179.629 343.009 186.318C343.603 200.783 343.701 215.281 343.998 229.746C344.196 239.137 339.385 244.244 329.235 244.903C329.004 242.037 328.642 239.137 328.576 236.237C328.246 224.079 328.279 211.92 327.587 199.794C327.225 193.534 326.038 187.24 324.391 181.178C322.578 174.62 317.635 170.568 311.045 168.953C308.309 168.294 307.255 167.141 306.629 164.208C302.048 142.955 298.918 121.241 289.493 101.306C280.134 81.5031 267.843 64.0065 249.521 51.3536C235.021 41.3697 218.742 36.4601 201.409 34.6478C184.866 32.9014 168.324 30.7926 151.715 29.6723C128.351 28.0907 105.515 30.3643 84.6222 42.4241C73.3851 48.9153 65.7069 58.8992 57.3697 68.4877C39.4102 89.1805 30.5787 113.432 26.9538 140.056C25.0095 154.356 22.1756 168.591 21.3847 182.924C20.8904 191.293 17.5291 195.511 10.4771 198.542C5.66593 200.618 3.52396 204.671 3.9194 210.108C4.71028 220.784 5.27049 231.493 6.02842 242.201C6.62158 250.307 7.47837 258.413 8.13743 266.519C8.3022 268.496 8.13743 270.506 8.13743 272.483C7.87381 272.516 7.61018 272.582 7.34655 272.615V272.68Z" fill="#FFFDEB"/>
<path d="M305.377 168.36C303.498 169.019 301.752 169.645 299.214 170.502C298.358 166.746 297.534 163.22 296.776 159.694C292.756 141.242 289.658 122.493 281.914 105.063C273.939 87.1379 263.691 70.6957 247.181 59.3608C234.165 50.4313 220.258 42.9516 204.441 40.2826C194.555 38.6351 184.537 37.2182 174.552 36.9217C157.021 36.3945 139.49 36.5922 121.958 36.8558C109.469 37.0535 99.1217 42.5562 89.3675 50.2336C65.8388 68.8505 49.6587 92.8053 38.2898 120.055C33.2479 132.181 30.9741 145.097 31.2378 158.541C31.4355 168.657 29.9196 178.773 29.1617 188.888C29.1288 189.514 29.0299 190.404 28.6015 190.668C27.3493 191.491 25.9652 192.348 24.5153 192.579C24.0869 192.645 22.8017 190.602 22.8347 189.547C23.1972 182.364 23.296 175.082 24.4494 167.998C26.9538 152.281 29.6231 136.596 32.9184 121.044C36.9387 101.998 45.8031 85.3256 58.655 70.6628C65.2786 63.1171 70.8477 54.6819 79.1519 48.619C91.9049 39.3271 106.141 34.1539 121.728 32.77C129.933 32.0451 138.237 31.6826 146.443 32.0451C158.899 32.6052 171.355 33.6596 183.746 35.0106C195.345 36.2956 207.044 37.5477 218.413 40.0849C244.149 45.8183 262.9 61.6344 276.938 83.3486C289.658 102.987 297.27 124.668 301.554 147.569C302.839 154.356 304.059 161.177 305.377 168.294V168.36Z" fill="#FFFDEB"/>
<path d="M297.105 170.271C294.766 172.018 292.788 173.468 290.482 175.181C289.46 168.064 288.241 160.222 287.252 152.346C286 142.132 285.934 131.687 281.057 122.23C279.64 119.495 278.322 116.562 276.312 114.256C267.975 104.766 260.56 94.321 249.587 87.5333C246.094 85.3586 244.512 82.6896 244.413 78.4061C244.314 74.9133 243.293 71.2229 241.744 68.0597C235.318 54.8466 214.623 44.1708 200.058 46.2796C193.006 47.301 187.437 51.1233 183.548 56.7907C180.187 61.6673 176.43 62.3263 170.993 61.1401C161.7 59.1302 152.177 58.1417 142.851 56.1976C139.358 55.4727 135.634 53.957 132.932 51.6834C125.913 45.7194 118.696 40.711 108.843 40.7769C112.764 40.4144 116.653 39.9202 120.574 39.7554C135.799 39.1294 151.056 37.7455 166.281 38.2397C184.273 38.7999 202.661 39.4259 219.5 46.7409C236.834 54.2535 253.31 63.2819 264.745 79.4275C276.971 96.6935 285.077 115.508 289.328 136.168C291.701 147.635 294.502 159.035 297.072 170.337L297.105 170.271Z" fill="#FFFDEB"/>
<path d="M281.98 292.121C283.298 283.95 284.616 276.206 285.769 268.463C286.659 262.466 287.022 261.939 293.151 261.214C296.216 260.852 299.313 260.786 302.641 260.983C297.072 260.028 296.578 263.554 296.347 267.409C296.249 268.957 295.985 270.506 295.589 271.989C294.337 276.734 293.843 280.523 299.181 284.016C304.652 287.607 305.706 295.548 303.103 301.578C298.028 313.407 298.094 325.632 299.61 338.153C300.17 342.832 299.28 347.675 299.412 352.42C299.577 357.626 299.313 363.096 300.697 368.006C304.718 382.174 307.222 396.409 305.97 411.171C305.541 416.41 307.782 419.771 311.539 423.494C315.889 427.81 318.591 433.774 321.754 439.178C322.018 439.64 320.568 441.913 319.678 442.078C316.548 442.638 313.318 442.77 310.122 442.77C309.43 442.77 308.507 441.715 308.046 440.925C306.135 437.696 304.553 434.269 302.477 431.171C301.093 429.096 299.247 427.184 297.27 425.636C294.107 423.197 292.591 420.133 292.953 416.245C294.304 401.879 291.998 388.007 287.944 374.266C286.758 370.279 286.692 365.897 286.527 361.712C286.33 355.056 286.956 348.334 286.395 341.711C285.473 330.937 286.593 320.656 290.943 310.705C293.316 305.236 289.889 297.262 283.957 293.373C283.331 292.945 282.672 292.55 281.947 292.121H281.98Z" fill="#FFFDEB"/>
<path d="M12.4543 200.091C14.9258 198.74 17.3973 197.389 20.1984 195.874C24.8118 204.704 29.3265 213.403 33.874 222.102C34.1706 222.003 34.4342 221.904 34.7308 221.806V219.532C34.7308 219.532 34.7967 219.532 34.8297 219.532C35.2581 227.078 35.5876 234.623 36.1478 242.136C36.741 249.813 37.6307 257.458 38.4216 265.662C36.4444 263.422 34.7638 261.478 33.0831 259.567C32.7206 259.797 32.3911 260.061 32.0286 260.291C33.5115 262.532 34.9285 264.773 36.4773 266.98C38.092 269.287 39.7727 271.56 40.926 274.196C38.7182 271.363 36.4773 268.496 34.2695 265.662C33.9729 265.86 33.7093 266.058 33.4127 266.255C34.4342 269.814 35.4558 273.34 36.6751 277.557C36.2796 278.579 30.7764 277.524 34.6319 282.5C32.9843 281.182 32.0945 280.49 30.9412 279.567C31.6332 284.18 39.542 290.408 44.0896 290.639C38.4875 292.154 32.8854 293.67 27.3163 295.186C28.0083 294.395 29.0299 293.703 29.2605 292.813C29.4912 291.759 29.2605 290.408 28.7333 289.452C28.5026 289.024 26.3936 288.991 26.2288 289.288C25.7675 290.309 25.5039 291.594 25.7345 292.682C25.8993 293.571 26.822 294.329 27.4152 295.153C19.1439 294.329 14.4645 290.968 12.8827 283.159C11.2351 274.987 10.543 266.618 9.62035 258.314C8.49994 248.1 7.37952 237.852 6.6875 227.605C6.22615 220.784 6.32501 213.898 6.55569 207.044C6.6875 203.452 9.55444 201.541 12.5202 200.025C12.2237 200.553 11.5646 201.245 11.6964 201.607C13.5418 206.385 15.486 211.097 17.5621 215.776C17.7928 216.27 19.0121 216.336 20.5938 216.896C18.6496 211.756 17.0678 207.571 15.519 203.419C17.7598 207.769 19.9347 212.151 22.2744 216.435C23.2301 218.214 24.5812 219.993 25.5368 216.303C26.2288 217.687 26.789 219.17 27.6788 220.422C28.3049 221.278 29.3924 221.839 30.2491 222.53C30.1832 221.377 30.4139 220.092 30.0185 219.104C28.8322 216.237 27.4152 213.502 26.0641 210.701C24.3834 207.209 22.8017 203.683 20.9893 200.289C20.495 199.399 19.2427 198.905 18.353 198.246C18.353 199.268 18.1223 200.388 18.4518 201.245C19.3086 203.386 20.462 205.429 21.4836 207.505C20.0336 205.363 18.5837 203.189 16.7383 200.421C16.1451 202.002 15.8815 202.793 15.5849 203.551C14.5304 202.398 13.4759 201.245 12.4214 200.124L12.4543 200.091Z" fill="#FFFDEB"/>
<path d="M294.996 189.943V194.786C295.458 194.885 295.919 194.984 296.38 195.083C299.05 187.999 300.796 180.684 302.444 172.874C298.292 172.874 296.644 174.621 296.051 178.048C295.557 180.947 294.601 183.748 293.843 186.714C292.723 182.661 297.171 178.871 293.975 174.489C297.303 173.468 300.73 172.38 304.849 171.128C301.126 182.99 297.666 194.061 294.173 205.133C294.7 205.297 295.227 205.495 295.754 205.66C299.346 194.786 302.905 183.913 306.497 173.039C306.596 173.072 306.728 173.105 306.827 173.138C304.256 181.705 301.818 190.305 299.083 198.839C298.391 201.014 298.358 202.991 300.401 203.65C301.752 204.078 303.861 203.156 305.179 202.233C307.486 200.586 307.65 196.5 311.868 196.697C312.692 196.73 313.615 193.831 314.439 192.414C314.34 193.633 314.241 194.951 314.142 196.236L315.493 196.73C316.482 194.786 317.438 192.809 318.294 191.129C318.163 192.117 317.998 193.369 317.767 195.083C322.974 191.425 323.633 185.989 320.008 182.068C319.217 181.211 319.118 179.761 318.558 178.278C317.932 178.509 317.108 178.838 316.152 179.234C316.317 178.048 316.482 176.927 316.581 176.202C314.274 174.522 312.264 173.072 309.562 171.095C315.988 172.644 320.107 176.005 321.722 181.441C323.468 187.307 325.182 193.435 325.478 199.498C326.203 215.38 326.203 231.262 326.401 247.144C326.5 253.108 323.995 255.843 318.031 256.601C310.023 257.589 301.982 258.611 293.942 259.534C293.184 259.632 291.965 259.303 291.635 258.776C291.306 258.216 291.767 257.161 291.866 256.304C292.591 256.469 293.316 256.766 294.041 256.766C296.512 256.799 299.017 256.766 301.488 256.733C301.719 256.733 301.95 256.502 302.213 256.502C307.519 256.008 307.552 255.975 309.595 249.846C308.771 249.648 307.98 249.484 307.189 249.286C307.617 247.836 308.013 246.419 308.507 244.805C306.102 243.882 303.268 243.421 304.882 239.599C303.432 239.862 302.477 240.027 301.126 240.258C301.686 237.786 302.213 235.447 302.773 233.107C302.279 232.91 301.752 232.679 301.257 232.481C299.906 235.282 298.522 238.083 297.237 240.95C295.886 243.981 294.667 247.078 292.953 250.011C294.37 245.793 295.787 241.576 297.204 237.358C297.863 235.381 298.226 233.536 294.865 232.646C293.975 236.304 293.085 239.928 292.228 243.553C292.723 238.874 293.217 234.162 293.711 229.45C293.217 229.384 292.69 229.318 292.195 229.252C291.503 233.701 290.811 238.116 290.119 242.564C289.987 242.564 289.856 242.531 289.724 242.498C291.141 225.035 292.558 207.538 293.975 190.074C294.304 190.074 294.634 190.074 294.963 190.074L294.996 189.943Z" fill="#FFFDEB"/>
<path d="M243.556 86.5448C242.535 92.4758 241.81 98.4728 240.426 104.338C238.811 111.06 234.099 115.08 227.508 116.892C223.916 117.88 220.258 118.605 216.666 119.627C207.044 122.395 197.982 120.747 189.447 116.068C178.572 110.104 174.684 99.8237 175.079 88.39C175.343 80.7455 177.386 72.9034 180.022 65.6543C184.306 53.8252 197.487 43.973 213.041 48.8167C220.357 51.0903 226.948 54.1876 232.583 59.3608C240.59 66.6758 244.018 75.7041 242.633 86.5777C242.963 86.5777 243.26 86.5777 243.589 86.5777L243.556 86.5448ZM185.262 64.4352C183.746 68.4551 181.966 72.3762 180.813 76.4949C178.869 83.4474 179.429 90.2352 183.252 96.6275C184.899 99.3954 186.283 102.328 187.7 105.195C190.304 110.533 194.653 113.465 200.42 114.058C205.66 114.585 210.965 114.915 216.238 114.849C227.442 114.717 234.527 109.149 237.789 98.4069C238.383 96.4298 239.042 94.4858 239.569 92.4758C241.711 83.9417 240.656 75.5064 236.109 68.2574C228.002 55.2091 214.788 51.6505 200.552 52.8037C193.797 53.3639 187.535 57.0213 185.163 64.534L185.295 64.4352H185.262Z" fill="#FFFDEB"/>
<path d="M44.1555 114.091C43.8259 115.574 43.5953 117.057 43.1339 118.507C41.5192 123.713 40.9919 128.82 41.3874 134.421C41.7828 140.056 39.7727 145.822 39.0806 151.589C37.7955 162.199 36.6421 172.809 35.6535 183.451C35.3899 186.219 36.0819 189.053 36.3455 192.084H30.9741C31.2707 189.646 31.6991 187.438 31.798 185.198C32.3911 174.258 33.2149 163.319 33.3138 152.379C33.4456 138.573 38.4875 126.316 44.1225 114.091H44.1555Z" fill="#FFFDEB"/>
<path d="M307.65 445.406C304.685 445.702 301.653 446.658 298.819 446.197C290.086 444.747 281.749 445.966 273.181 447.614C261.45 449.854 249.521 449.426 237.69 447.251C225.036 444.912 212.481 446.856 199.827 447.811C184.636 448.932 169.378 449.492 154.154 450.052C145.619 450.348 137.084 449.821 128.549 450.25C123.573 450.513 118.696 452.26 113.687 452.754C110.194 453.116 106.404 453.149 103.076 452.227C94.673 449.953 85.6767 449.657 77.8997 444.978C76.7464 444.286 74.7033 445.076 73.0886 445.307C72.0011 445.439 70.9466 445.768 69.8262 445.67C75.9225 442.77 75.7578 443.165 81.3928 445.34C86.3358 447.251 91.872 447.745 96.815 449.657C105.053 452.82 113.094 451.271 121.464 450.348C133.228 449.063 145.125 449.393 156.988 448.899C168.423 448.404 179.857 447.647 191.292 447.152C208.098 446.427 224.773 443.099 241.777 446.559C254.629 449.162 267.711 448.24 280.596 444.978C284.352 444.022 288.472 444.516 292.426 444.45C297.435 444.384 302.444 444.45 307.486 444.45C307.552 444.78 307.618 445.109 307.65 445.439V445.406Z" fill="#FFFDEB"/>
<path d="M81.2609 60.3164C75.2964 72.9363 68.2114 84.436 55.2937 92.7065C62.3457 79.6911 71.2431 69.6083 81.2609 60.3164Z" fill="#FFFDEB"/>
<path d="M143.345 73.8919C143.246 72.3432 143.18 71.3218 143.114 69.806C149.837 69.806 156.362 69.806 162.886 69.806C165.984 69.806 169.115 69.7401 172.179 70.1685C173.431 70.3332 175.442 71.849 175.442 72.6727C175.376 74.8145 173.695 74.8804 171.718 74.3202C162.491 71.816 153.165 71.6842 143.378 73.8589L143.345 73.8919Z" fill="#FFFDEB"/>
<path d="M27.1845 195.973C30.9412 203.024 36.9387 209.12 37.7955 217.456C37.466 217.621 37.1694 217.786 36.8398 217.917L34.0388 212.711C34.3354 212.645 34.632 212.579 34.9285 212.547C34.9945 211.822 35.324 210.965 35.0604 210.405C32.49 205.561 29.8208 200.75 27.1845 195.94V195.973Z" fill="#FFFDEB"/>
<path d="M287.285 298.876C284.352 300.754 281.881 302.336 278.717 304.346C279.541 300.557 280.2 297.459 281.024 293.67C283.265 295.548 285.077 297.031 287.285 298.876Z" fill="#FFFDEB"/>
<path d="M291.042 247.375C290.284 251.428 289.526 255.448 288.768 259.501C288.241 259.402 287.714 259.303 287.153 259.204C287.944 255.184 288.702 251.131 289.493 247.111C290.02 247.21 290.515 247.309 291.042 247.408V247.375Z" fill="#FFFDEB"/>
<path d="M51.9325 310.87V299.008C55.6562 305.895 55.6892 308.596 51.9325 310.87Z" fill="#FFFDEB"/>
<path d="M66.2013 435.85C68.9364 432.621 71.6386 429.425 74.3737 426.196C74.7033 426.427 75.0328 426.69 75.3294 426.921C73.484 430.842 69.8591 433.445 67.1899 436.74C66.8604 436.443 66.5308 436.147 66.2013 435.85Z" fill="#FFFDEB"/>
<path d="M30.7764 212.118C28.1731 207.011 25.6027 201.937 22.9994 196.829C23.1312 196.763 23.296 196.697 23.4278 196.632C25.9981 201.739 28.5356 206.846 31.1059 211.953C31.0071 212.019 30.8752 212.052 30.7764 212.118Z" fill="#FFFDEB"/>
<path d="M62.7082 314.989C60.7969 312.254 58.9186 309.519 57.0073 306.751C57.3368 306.521 57.6993 306.29 58.0288 306.026C59.9072 308.728 61.7855 311.463 63.6968 314.165C63.3673 314.429 63.0377 314.692 62.7082 314.956V314.989Z" fill="#FFFDEB"/>
<path d="M188.162 258.743C182.559 273.933 177.023 289.123 171.256 304.247C170.169 307.081 168.357 309.75 166.511 312.188C163.743 315.879 161.041 315.615 158.767 311.529C157.713 309.618 156.889 307.575 156.197 305.532C149.903 286.915 143.642 268.298 137.348 249.714C135.107 243.091 134.349 236.435 136.623 229.648C136.754 229.219 136.524 228.659 136.458 228.165L136.326 228.297C136.952 227.572 137.743 226.913 138.204 226.089C143.872 216.171 152.638 212.052 163.776 212.909C168.06 213.239 172.278 214.458 176.496 215.248C176.43 215.611 176.364 215.94 176.298 216.303C171.553 215.281 166.808 214.227 162.063 213.206C161.964 213.601 161.898 213.963 161.799 214.359C164.864 215.183 167.928 215.973 170.993 216.797C170.993 216.896 170.993 216.995 170.96 217.094C169.774 216.995 168.554 216.896 167.368 216.797C167.302 217.028 167.236 217.258 167.17 217.489C168.357 217.95 169.543 218.543 170.762 218.873C179.824 221.245 186.942 226.649 193.236 233.305C194.126 234.228 194.39 235.776 194.587 237.16C192.808 230.076 167.467 217.522 159.196 220.883C169.411 223.189 178.506 226.056 186.712 232.383C180.22 229.78 174.288 227.407 168.324 225.035C168.159 225.397 168.027 225.76 167.862 226.122C173.794 228.692 179.726 231.262 185.657 233.832C185.525 234.195 185.361 234.524 185.229 234.887C177.089 230.603 168.653 227.473 159.426 227.275C159.294 227.638 159.196 228 159.064 228.363C160.909 228.989 162.755 229.582 164.6 230.208C164.369 230.406 164.139 230.603 163.908 230.801C165.028 231.559 166.083 232.383 167.236 233.042C168.785 233.865 170.4 234.557 172.937 235.744C168.686 235.052 165.523 234.524 162.326 234.03L161.898 235.216C163.315 236.139 164.699 237.029 166.116 237.951C166.05 238.412 165.819 239.236 165.984 239.335C167.401 240.126 168.917 240.785 171.158 241.872C168.192 241.576 166.116 241.378 164.04 241.18C163.941 241.543 163.842 241.872 163.743 242.235C166.478 243.322 169.18 244.376 171.916 245.464C171.916 245.563 171.883 245.662 171.85 245.76C168.62 245.2 165.391 244.64 162.161 244.08C162.063 244.344 161.997 244.64 161.898 244.904C163.644 245.629 165.391 246.353 167.17 247.078C166.577 247.309 166.017 247.507 165.457 247.704C165.391 248.001 165.358 248.298 165.292 248.594C172.41 251.164 179.495 253.701 186.613 256.272C186.778 256.008 186.942 255.744 187.107 255.481C186.053 254.558 185.031 253.635 183.548 252.35C185.426 252.812 186.81 253.141 188.195 253.471C188.326 253.174 188.458 252.911 188.59 252.614C186.942 251.626 185.262 250.604 183.548 249.55H190.996C189.974 252.812 189.018 255.81 188.063 258.842C179.857 253.833 171.059 251.098 161.37 251.461C169.576 254.393 177.946 256.799 186.316 259.171C186.843 259.336 187.535 258.908 188.162 258.776V258.743ZM166.116 256.107C171.059 259.138 182.164 262.301 184.372 261.412C180.121 257.853 172.08 255.448 166.116 256.107ZM183.515 265.761C182.197 262.104 172.542 259.072 169.213 261.148C174.09 262.73 178.473 264.147 183.515 265.761ZM170.927 264.015C170.795 264.641 170.663 265.3 170.532 265.926C174.354 267.046 178.078 268.661 182.197 268.232C182.296 267.738 182.428 267.277 182.527 266.783C178.671 265.86 174.782 264.937 170.927 264.015ZM171.059 267.145C172.772 270.572 178.803 272.252 182.559 270.374C178.44 269.221 175.046 268.265 171.059 267.145ZM171.421 273.274C171.256 273.933 171.059 274.559 170.894 275.218C173.596 275.91 176.298 276.602 179.033 277.294C179.198 276.701 179.363 276.108 179.528 275.514C176.826 274.757 174.156 274.032 171.454 273.274H171.421Z" fill="#FFFDEB"/>
<path d="M188.392 290.803C190.732 275.514 190.007 259.797 194.456 244.772C195.049 244.871 195.675 244.937 196.268 245.035C193.994 260.39 191.688 275.712 189.414 291.067C189.084 290.968 188.755 290.902 188.425 290.803H188.392Z" fill="#FFFDEB"/>
<path d="M174.453 304.445C174.947 305.796 175.31 307.246 176.002 308.531C177.847 311.892 180.483 312.188 182.494 308.992C184.504 305.763 185.954 302.171 187.865 298.349C186.646 304.313 185.723 310.046 184.141 315.549C183.68 317.131 181.406 318.58 179.66 319.174C179.066 319.371 177.023 317.065 176.496 315.582C175.211 312.056 174.453 308.366 173.497 304.741C173.827 304.642 174.189 304.544 174.519 304.445H174.453Z" fill="#FFFDEB"/>
<path d="M166.149 237.885C167.895 237.984 169.807 237.688 171.388 238.281C178.144 240.884 184.8 243.75 191.325 246.947C182.955 243.915 174.585 240.884 166.182 237.885H166.149Z" fill="#FFFDEB"/>
<path d="M176.035 218.379C181.67 219.466 187.7 223.189 190.93 227.671C185.954 224.573 180.846 221.377 176.035 218.379Z" fill="#FFFDEB"/>
<path d="M79.5144 91.9816C82.612 92.6406 85.4131 95.3095 88.1812 92.344C88.6096 91.8827 88.5107 90.9601 88.6425 90.2352C89.9936 90.367 91.4765 90.5317 93.5855 90.7624C91.839 88.4559 83.4029 84.9302 81.8212 85.6881C80.7996 86.1823 80.2065 87.5003 79.1519 88.7524C78.9872 87.1708 78.8224 85.7869 78.6247 83.9746C82.0189 84.8973 84.8529 85.6881 87.6539 86.4789C90.389 87.2697 93.1242 88.0605 95.8593 88.8513C95.9911 88.39 96.1229 87.9616 96.2547 87.5003C90.6527 85.6222 85.0506 83.711 79.4485 81.8329C79.5803 81.4704 79.7122 81.1409 79.8769 80.7785C84.9188 82.5578 89.9606 84.3371 95.0025 86.0505C97.8694 87.039 100.769 87.9287 102.516 84.1394C102.714 83.744 103.34 83.3156 103.768 83.2827C106.701 83.2168 109.634 83.2497 112.896 83.2497C113.259 82.2942 113.654 81.3386 114.115 80.1854C112.435 79.2298 110.886 78.3402 109.799 77.7141C114.478 78.5379 119.652 79.4275 124.825 80.3501C124.957 79.9877 125.122 79.6582 125.254 79.2957C123.837 78.3731 122.42 77.4505 120.047 75.8689C123.705 77.4835 126.308 78.6367 128.912 79.79C129.109 79.5593 129.307 79.2957 129.505 79.0651C128.351 78.2084 127.33 77.088 126.045 76.4949C118.432 73.0681 110.754 69.806 103.076 66.4451C103.208 66.1486 103.34 65.885 103.472 65.5884C113.852 70.3991 124.232 75.2428 135.008 80.2183C134.349 79.2628 133.789 78.439 132.734 76.8903C134.052 77.8459 135.272 78.3072 135.337 78.8674C135.766 82.2942 136.491 85.8199 136.095 89.1808C134.151 105.755 120.113 118.21 103.636 118.243C90.4879 118.243 81.953 110.73 80.1405 97.4183C79.9099 95.672 79.7122 93.9256 79.4485 91.9157L79.5144 91.9816Z" fill="#FFFDEB"/>
<path d="M104.394 55.3409C112.303 58.9325 120.212 62.557 128.154 66.1486C132.339 68.0597 134.711 71.2888 134.579 76.3302C133.756 75.111 132.536 73.9907 132.207 72.6727C131.449 69.3447 129.307 67.5984 126.407 66.3463C118.136 62.7876 109.897 59.1631 101.297 55.4068C103.801 52.5731 107.294 50.9585 110.919 51.5516C114.115 52.0788 117.081 54.2535 120.146 55.7033C120.014 55.9999 119.849 56.2965 119.717 56.593C116.126 55.1432 112.534 53.7263 108.975 52.2765C108.777 52.6719 108.612 53.1003 108.414 53.4957C115.598 56.9884 122.782 60.5141 129.999 64.0068C121.398 61.1072 113.72 55.7692 104.394 55.275V55.3409Z" fill="#FFFDEB"/>
<path d="M99.0887 66.8735C95.1672 66.6099 91.2458 66.3463 87.2914 66.0827C87.8516 64.4022 89.0379 63.216 91.5753 64.3034C94.0468 65.3578 96.5183 66.3133 99.0228 67.3018C99.1216 67.3348 99.2205 67.4666 99.2864 67.5654C99.2205 67.5984 99.1216 67.6313 99.0557 67.6643C99.0557 67.4007 99.0887 67.1371 99.1216 66.8735H99.0887Z" fill="#FFFDEB"/>
<path d="M82.2166 74.6827C82.3484 74.2543 82.5461 73.4306 82.8097 72.4091C87.4232 74.1225 91.9048 75.803 96.3535 77.4505C96.3206 77.5823 96.2547 77.7471 96.2217 77.8789C93.9479 77.154 91.7401 76.2972 89.4333 75.77C87.1266 75.2428 84.754 75.0451 82.2166 74.6827Z" fill="#FFFDEB"/>
<path d="M206.352 191.524C205.989 179.3 210.273 169.052 218.083 160.222C222.268 155.477 226.915 154.719 232.649 157.487C237.723 159.958 241.579 163.714 243.721 168.887C250.378 184.868 249.751 200.586 240.92 215.611C236.175 223.717 228.727 225.133 220.851 219.828C210.735 212.975 205.792 203.518 206.319 191.524H206.352ZM228.101 181.343C219.995 181.474 213.437 187.9 213.503 195.676C213.569 203.881 220.324 210.273 228.925 210.24C236.735 210.24 243.391 203.353 243.227 195.511C243.029 187.241 236.636 181.211 228.134 181.343H228.101Z" fill="#FFFDEB"/>
<path d="M72.034 190.503C72.034 180.552 76.252 170.304 84.0949 161.474C87.9834 157.124 92.3003 156.333 97.7047 158.64C104.427 161.54 108.612 166.746 110.886 173.533C115.928 188.625 115.104 203.189 106.899 217.094C102.483 224.54 94.8377 226.484 87.4562 221.838C76.6145 215.051 72.001 204.968 72.067 190.503H72.034ZM93.948 206.517C102.153 206.517 108.612 200.256 108.678 192.282C108.744 184.539 102.054 178.114 93.8491 178.114C85.7426 178.114 79.119 184.506 79.119 192.381C79.119 200.19 85.7755 206.55 93.948 206.517Z" fill="#FFFDEB"/>
<path d="M182.988 76.8244C183.416 75.2428 184.009 74.3202 185.921 75.3417C188.656 76.7915 191.457 78.0765 194.324 79.2298C200.717 81.7999 207.176 84.2382 214.162 86.1494C212.975 85.062 211.789 83.9746 210.109 82.4589C212.448 83.5133 214.261 84.3041 216.073 85.095C216.271 84.8643 216.469 84.6666 216.666 84.4359C215.941 83.6451 215.216 82.8543 214.491 82.0635C214.557 81.9647 214.59 81.8329 214.656 81.734C216.732 83.085 218.676 84.6666 220.884 85.754C222.993 86.7754 225.333 87.2367 227.574 87.9287C227.837 87.4674 228.101 87.0061 228.365 86.5777C223.817 83.2827 219.237 79.9877 214.689 76.6926C214.755 76.5608 214.788 76.462 214.854 76.3302C221.741 80.2842 228.595 84.2382 235.746 88.357C236.175 84.6995 233.934 82.8873 231.33 81.4704C219.533 75.111 207.67 68.8175 195.873 62.4911C194.324 61.6673 192.841 60.7118 190.93 59.5915C192.149 58.7348 192.94 58.2076 192.907 58.2076C206.055 65.7532 218.643 73.0022 231.232 80.2183C231.528 79.757 231.792 79.2957 232.088 78.8015C226.684 75.6382 221.28 72.4091 215.842 69.2788C210.372 66.1486 204.869 63.0842 199.728 59.3608C211.328 65.6873 222.927 72.0467 234.527 78.3731C236.438 75.77 235.713 73.9578 233.868 72.2773C233.143 71.6183 232.517 70.8275 231.825 70.1026C240.854 77.0221 238.613 86.413 236.57 95.1448C233.538 107.962 226.783 112.773 213.503 112.806C209.252 112.806 205.001 112.51 200.783 111.982C195.609 111.356 191.655 108.687 189.315 103.844C188.096 101.306 187.008 98.6375 185.492 96.2651C181.538 90.0704 181.011 83.5463 183.021 76.6267C183.186 78.3731 183.35 80.0865 183.581 82.393C184.57 82.9202 186.086 83.711 187.601 84.5018C186.843 84.9632 185.361 85.7869 185.394 85.8858C186.382 87.9287 187.206 90.2352 188.788 91.7839C190.271 93.2337 192.676 93.7279 194.456 94.9471C197.85 97.2206 200.19 95.672 202.826 93.0689C198.41 90.5976 194.291 88.2911 190.172 85.9846C197.026 88.357 203.847 90.7624 210.702 93.1348C210.965 92.7394 211.196 92.344 211.46 91.9486C210.702 91.0919 210.109 89.9386 209.186 89.4114C201.475 85.095 193.731 80.8444 185.921 76.6926C185.163 76.2972 183.944 76.6926 182.955 76.7256L182.988 76.8244Z" fill="#FFFDEB"/>
<path d="M209.911 54.7478C220.39 55.8681 226.684 64.1715 234.626 69.7401C226.387 64.7317 218.149 59.7233 209.911 54.7478Z" fill="#FFFDEB"/>
<path d="M185.13 64.501C186.382 63.7102 187.667 62.8865 189.084 61.9639C190.238 63.0512 191.457 64.1715 192.281 64.9623C190.996 65.4236 189.48 65.7861 188.195 66.544C187.832 66.7746 188.129 68.1585 188.129 69.4765C187.7 69.5754 186.613 69.8719 185.525 70.1355C185.591 68.9493 185.69 67.7631 185.657 66.6099C185.657 65.8849 185.394 65.1271 185.262 64.4022L185.13 64.501Z" fill="#FFFDEB"/>
<path d="M231.891 70.1685C227.936 68.0926 223.949 66.1156 220.093 63.908C214.986 60.9754 209.977 57.8781 205.264 54.2206C209.614 56.8896 213.931 59.5585 218.281 62.1945C222.796 64.8965 227.343 67.4995 231.858 70.1356L231.891 70.1685Z" fill="#FFFDEB"/>
<path d="M210.438 62.8865C206.352 60.8436 202.266 58.7677 198.212 56.7248L198.575 55.8351C200.486 56.8896 202.397 57.911 204.309 58.9654C206.418 60.1516 208.494 61.3378 210.603 62.524C210.537 62.6558 210.471 62.7547 210.438 62.8865Z" fill="#FFFDEB"/>
<path d="M239.009 203.947C237.592 205.034 236.735 205.693 236.768 205.66C234.066 202.76 231.594 200.124 229.156 197.455C229.254 197.291 229.353 197.159 229.452 196.994C232.451 199.169 235.45 201.343 239.009 203.914V203.947Z" fill="#FFFDEB"/>
<path d="M233.044 190.371C229.848 188.46 226.684 186.516 223.488 184.605C223.488 184.275 223.488 183.946 223.521 183.616C224.674 183.32 225.86 182.99 227.014 182.694C226.816 183.089 226.651 183.451 226.453 183.847C228.727 185.857 231.034 187.9 233.308 189.91C233.209 190.074 233.11 190.206 233.011 190.371H233.044Z" fill="#FFFDEB"/>
<path d="M100.077 202.661C101.264 200.75 101.857 199.762 102.977 197.917C101.198 196.599 99.1875 195.182 97.2103 193.732L98.0671 192.71C99.6818 193.798 101.264 194.852 102.845 195.907C103.439 193.6 103.966 191.524 104.493 189.448C104.823 189.448 105.119 189.481 105.449 189.514C104.724 188.064 104.032 186.615 102.878 184.242C107.393 187.241 107.492 190.931 106.997 194.556C106.503 198.015 104.888 200.948 100.11 202.628L100.077 202.661Z" fill="#FFFDEB"/>
<path d="M96.4525 202.332C94.3105 200.52 91.806 198.378 89.3016 196.236C89.4663 196.038 89.6311 195.808 89.7629 195.61C93.2889 197.95 96.8149 200.289 101.428 203.353C98.166 204.309 96.0241 204.968 93.8491 205.594C93.6514 205.232 93.4207 204.869 93.223 204.507C94.2116 203.815 95.2332 203.123 96.4195 202.299L96.4525 202.332Z" fill="#FFFDEB"/>
</svg>
